<svg width="1375" height="838" viewBox="0 0 1375 838" fill="none" xmlns="http://www.w3.org/2000/svg">
<path opacity="0.4" d="M98.5 347C166.707 347 222 291.707 222 223.5C222 155.293 166.707 100 98.5 100C30.2928 100 -25 155.293 -25 223.5C-25 291.707 30.2928 347 98.5 347Z" fill="#F2F2F2"/>
<path opacity="0.4" d="M378.5 665C417.988 665 450 632.988 450 593.5C450 554.012 417.988 522 378.5 522C339.012 522 307 554.012 307 593.5C307 632.988 339.012 665 378.5 665Z" fill="#F2F2F2"/>
<path opacity="0.4" d="M640 388C651.598 388 661 378.598 661 367C661 355.402 651.598 346 640 346C628.402 346 619 355.402 619 367C619 378.598 628.402 388 640 388Z" fill="#F2F2F2"/>
<path opacity="0.4" d="M105 838C116.598 838 126 828.598 126 817C126 805.402 116.598 796 105 796C93.402 796 84 805.402 84 817C84 828.598 93.402 838 105 838Z" fill="#F2F2F2"/>
<path opacity="0.4" d="M1333 214C1356.2 214 1375 195.196 1375 172C1375 148.804 1356.2 130 1333 130C1309.8 130 1291 148.804 1291 172C1291 195.196 1309.8 214 1333 214Z" fill="#F2F2F2"/>
<path opacity="0.4" d="M703.5 85C726.972 85 746 65.9721 746 42.5C746 19.0279 726.972 0 703.5 0C680.028 0 661 19.0279 661 42.5C661 65.9721 680.028 85 703.5 85Z" fill="#F2F2F2"/>
</svg>
