<svg width="758" height="618" viewBox="0 0 758 618" fill="none" xmlns="http://www.w3.org/2000/svg">
<g clip-path="url(#clip0)">
<path d="M748.326 335.692L334.034 453.261L712.022 240.109C694.79 208.513 673.156 179.53 647.772 154.028L281.038 356.024L588.059 105.126C544.024 75.9728 494.348 56.4284 442.265 47.765L272.205 331.916L384.839 42.6651C383.162 42.6432 381.485 42.6181 379.803 42.6181C170.931 42.6181 1.60593 212.078 1.60593 421.117C1.49634 490.256 20.4005 558.093 56.2478 617.196H703.358C754.313 532.769 770.44 431.81 748.326 335.692Z" fill="#F2F2F2"/>
<path d="M653.614 318.255H105.992V617.196H653.614V318.255Z" fill="#01478D"/>
<path d="M545.214 352.81H202.347V354.417H545.214V352.81Z" fill="#2F2E41"/>
<path d="M294.515 432.872H169.426V447.098H294.515V432.872Z" fill="#FEB405"/>
<path d="M379.803 457.056H169.426V465.592H379.803V457.056Z" fill="#F2F2F2"/>
<path d="M368.431 475.55H169.426V484.086H368.431V475.55Z" fill="#F2F2F2"/>
<path d="M314.415 494.044H169.426V502.579H314.415V494.044Z" fill="#F2F2F2"/>
<path d="M679.309 589.817C679.309 563.967 666.203 543.012 650.036 543.012C639.874 543.012 630.925 551.294 625.676 563.862C623.903 563.125 622.002 562.744 620.082 562.739C615.188 562.739 610.664 565.248 606.974 569.495C602.243 553.824 592.21 543.012 580.597 543.012C569.739 543.012 560.269 552.471 555.215 566.509C552.408 564.138 548.87 562.807 545.197 562.739C532.789 562.739 522.731 578.821 522.731 598.659C522.679 605.272 523.88 611.834 526.27 618H673.406C677.11 610.16 679.309 600.4 679.309 589.817Z" fill="#FEB405"/>
<path d="M161.239 105.021C182.086 105.021 198.986 88.1079 198.986 67.2441C198.986 46.3803 182.086 29.4669 161.239 29.4669C140.392 29.4669 123.492 46.3803 123.492 67.2441C123.492 88.1079 140.392 105.021 161.239 105.021Z" fill="#FEB405"/>
<path d="M137.358 138.86C138.799 138.241 140.405 138.115 141.926 138.504C143.446 138.892 144.795 139.771 145.765 141.006C149.117 145.195 153.692 154.386 151.936 172.415L145.134 242.243L144.051 312.629C144.051 312.629 133.82 345.08 118.839 344.774C103.858 344.468 131.246 313.691 131.246 313.691C131.246 313.691 127.448 257.852 129.009 241.826C130.465 226.885 116.059 148.131 137.358 138.86Z" fill="#FFB8B8"/>
<path d="M155.828 106.912L164.416 130.205L152.14 134L150.416 167.803L180.854 151.395L196.184 134.489L198.097 121.516C198.097 121.516 186.275 119.464 181.977 93.3375L155.828 106.912Z" fill="#FFB8B8"/>
<path d="M98.1979 301.519C98.1979 301.519 44.4943 355.482 58.3326 383.935C72.171 412.388 139.706 511.991 139.706 511.991L157.773 488.964C157.773 488.964 140.015 476.043 131.744 445.76C123.473 415.478 104.754 394.564 99.2287 387.12C93.7037 379.676 151.105 327.585 146.034 314.294C140.964 301.003 98.1979 301.519 98.1979 301.519Z" fill="#FFB8B8"/>
<path opacity="0.1" d="M98.1979 301.519C98.1979 301.519 44.4943 355.482 58.3326 383.935C72.171 412.388 139.706 511.991 139.706 511.991L157.773 488.964C157.773 488.964 140.015 476.043 131.744 445.76C123.473 415.478 104.754 394.564 99.2287 387.12C93.7037 379.676 151.105 327.585 146.034 314.294C140.964 301.003 98.1979 301.519 98.1979 301.519Z" fill="black"/>
<path d="M131.942 495.55C131.942 495.55 126.332 506.651 128.022 511.081C129.712 515.512 138.574 541.089 138.574 541.089C138.574 541.089 129.138 578.137 135.984 577.312C142.83 576.488 167.606 551.494 166.508 542.359L163.35 516.095L171.02 522.122L180.782 507.045L167.176 490.149C167.176 490.149 152.566 474.531 148.002 475.081C143.438 475.63 131.942 495.55 131.942 495.55Z" fill="#2F2E41"/>
<path d="M142.611 314.706L139.008 323.249L123.876 389.944C123.876 389.944 117.854 397.62 119.733 422.879C121.612 448.139 89.374 545.855 89.374 545.855L88.2848 565.679L107.682 563.344L120.91 538.582C120.91 538.582 125.877 512.498 140.384 488.741C154.89 464.984 154.872 407.064 154.872 407.064L193.914 317.796L163.192 302.961L142.611 314.706Z" fill="#FFB8B8"/>
<path d="M95.9882 533.474C95.9882 533.474 90.1459 533.019 89.2794 535.44C88.4129 537.861 70.9469 585.144 70.9469 585.144C70.9469 585.144 37.7296 616.946 53.9782 617.306C70.2268 617.667 97.4735 613.227 102.08 603.405C106.687 593.583 112.023 580.198 112.023 580.198L113.67 593.9L126.539 585.4C126.539 585.4 133.736 539.354 125.337 536.89C116.938 534.426 95.9882 533.474 95.9882 533.474Z" fill="#2F2E41"/>
<path d="M115.578 272.782C115.578 272.782 101.981 284.846 103.259 285.85C104.537 286.855 95.5467 289.096 97.2369 293.526C98.9271 297.956 89.619 307.186 94.183 306.636C98.747 306.087 116.454 299.321 136.04 317.815L139.463 317.402L139.008 323.249C139.008 323.249 153.198 306.481 189.856 332.186C189.856 332.186 201.995 327.249 200.305 322.819C198.615 318.389 220.02 313.495 208.463 284.767C196.907 256.039 161.124 256.872 161.124 256.872L115.578 272.782Z" fill="#003162"/>
<path d="M189.244 124.899C189.244 124.899 195.129 116.081 198.689 116.811C202.249 117.541 221.716 117.1 224.821 123.677C227.927 130.254 213.137 198.479 215.514 208.619C217.891 218.759 230.512 294.855 219.651 300.796C208.79 306.738 196.092 278.147 196.092 278.147C196.092 278.147 161.948 263.723 132.968 273.005C103.989 282.287 112.885 269.631 112.885 269.631C112.885 269.631 133.646 249.755 130.488 223.491C127.331 197.227 125.915 195.08 131.251 181.695C131.251 181.695 132.203 160.728 131.516 155.019C130.83 149.309 126.583 142.87 129.732 140.174C132.88 137.478 165.557 130.068 165.557 130.068C165.557 130.068 148.992 136.696 156.524 141.582C164.056 146.467 189.244 124.899 189.244 124.899Z" fill="#816535"/>
<path d="M160.203 113.137C175.436 113.137 187.785 100.778 187.785 85.5333C187.785 70.2883 175.436 57.9298 160.203 57.9298C144.97 57.9298 132.622 70.2883 132.622 85.5333C132.622 100.778 144.97 113.137 160.203 113.137Z" fill="#FFB8B8"/>
<path d="M218.179 120.481C216.723 119.894 215.115 119.805 213.604 120.227C212.093 120.65 210.763 121.56 209.822 122.816C206.565 127.079 202.198 136.371 204.36 154.357L212.735 224.013L215.404 294.357C215.404 294.357 213.68 328.159 228.65 327.515C243.621 326.871 228.229 295.129 228.229 295.129C228.229 295.129 230.768 239.218 228.846 223.232C227.054 208.328 239.681 129.269 218.179 120.481Z" fill="#FFB8B8"/>
<path d="M180.942 0C178.09 4.07703 173.862 6.98581 169.036 8.19103C160.711 10.4221 168.968 22.9427 168.968 22.9427C168.968 22.9427 165.966 18.3898 170.297 13.5681C174.628 8.74641 181.597 5.44993 180.942 0Z" fill="#FEB405"/>
<path d="M167.493 36.4744C173.303 36.4744 178.013 31.7608 178.013 25.9463C178.013 20.1318 173.303 15.4182 167.493 15.4182C161.683 15.4182 156.973 20.1318 156.973 25.9463C156.973 31.7608 161.683 36.4744 167.493 36.4744Z" fill="#FEB405"/>
<path d="M180.924 34.7705C172.348 31.5243 158.069 29.8782 150.722 31.0034L151.73 23.6406C158.792 27.2937 173.006 29.0104 181.931 27.4077L180.924 34.7705Z" fill="#3F3D56"/>
<path d="M164.33 37.4061C164.33 37.4061 153.582 55.2976 128.589 61.9954C103.597 68.6931 128.385 106.28 128.385 106.28C128.385 106.28 119.371 92.6118 132.373 78.1372C145.374 63.6626 166.297 53.7666 164.33 37.4061Z" fill="#FEB405"/>
<path d="M165.183 36.3188C165.183 36.3188 175.508 60.8938 186.843 63.2171C198.179 65.5405 197.319 104.371 179.592 110.194C179.592 110.194 192.518 87.4299 181.469 72.1629C170.421 56.896 163.442 44.8272 165.183 36.3188Z" fill="#FEB405"/>
<path d="M747.561 616.393H0V618H747.561V616.393Z" fill="#2F2E41"/>
<path d="M636.752 327.898H600.619V341.56H636.752V327.898Z" fill="#FEB405"/>
<path opacity="0.4" d="M562.875 505.793C588.155 505.793 608.648 485.283 608.648 459.983C608.648 434.683 588.155 414.174 562.875 414.174C537.595 414.174 517.102 434.683 517.102 459.983C517.102 485.283 537.595 505.793 562.875 505.793Z" fill="#E4A104"/>
<path opacity="0.4" d="M478.161 513.998C495.894 513.998 510.27 499.611 510.27 481.863C510.27 464.115 495.894 449.728 478.161 449.728C460.427 449.728 446.051 464.115 446.051 481.863C446.051 499.611 460.427 513.998 478.161 513.998Z" fill="#E4A104"/>
</g>
<defs>
<clipPath id="clip0">
<rect width="758" height="618" fill="white"/>
</clipPath>
</defs>
</svg>
